<svg width="21" height="20" viewBox="0 0 21 20" fill="none" xmlns="http://www.w3.org/2000/svg">
<g clip-path="url(#clip0_130_1227)">
<path d="M20.7773 10C20.7773 4.47656 16.3008 0 10.7773 0C5.25391 0 0.777344 4.47656 0.777344 10C0.777344 14.9918 4.43203 19.1289 9.21562 19.8793V12.893H6.67852V10H9.21562V7.79727C9.21562 5.29297 10.7059 3.90703 12.991 3.90703C14.0867 3.90703 15.232 4.1043 15.232 4.1043V6.56445H13.9719C12.7281 6.56445 12.3445 7.33711 12.3445 8.12617V10H15.1172L14.6734 12.893H12.3445V19.8793C17.1227 19.1289 20.7773 14.9918 20.7773 10Z" fill="#E6E6E6"/>
</g>
<defs>
<clipPath id="clip0_130_1227">
<rect width="20" height="20" fill="white" transform="translate(0.777344)"/>
</clipPath>
</defs>
</svg>
