<?xml version="1.0" standalone="no"?>
<!DOCTYPE svg PUBLIC "-//W3C//DTD SVG 20010904//EN"
 "http://www.w3.org/TR/2001/REC-SVG-20010904/DTD/svg10.dtd">
<svg version="1.0" xmlns="http://www.w3.org/2000/svg"
 width="200.000000pt" height="200.000000pt" viewBox="0 0 200.000000 200.000000"
 preserveAspectRatio="xMidYMid meet">

<g transform="translate(0.000000,200.000000) scale(0.100000,-0.100000)"
fill="#000000" stroke="none">
<path d="M0 1000 l0 -1000 1000 0 1000 0 0 1000 0 1000 -1000 0 -1000 0 0
-1000z m344 383 c3 -10 8 -45 12 -78 11 -97 20 -107 28 -32 12 121 14 127 51
127 17 0 34 -2 37 -5 3 -3 -9 -76 -26 -163 l-32 -157 -42 -3 c-23 -2 -42 -1
-42 1 0 2 -13 71 -30 152 -16 81 -30 154 -30 162 0 21 67 17 74 -4z m216 -148
l0 -165 -35 0 -35 0 0 165 0 165 35 0 35 0 0 -165z m127 80 l21 -80 1 83 1 83
33 -3 32 -3 0 -160 0 -160 -37 -3 c-40 -3 -40 -4 -67 116 -14 67 -18 59 -13
-33 l5 -85 -37 0 -36 0 0 158 c0 87 3 162 7 166 4 4 21 6 38 4 29 -3 31 -7 52
-83z m193 -80 l0 -165 -35 0 -35 0 0 165 0 165 35 0 35 0 0 -165z m102 38 l3
-128 38 -3 37 -3 0 96 c0 131 19 164 97 165 34 0 46 -5 67 -31 24 -28 26 -38
26 -130 0 -70 -5 -109 -15 -129 -27 -53 -119 -57 -157 -7 l-18 22 0 -27 0 -28
-75 0 -75 0 0 165 0 165 35 0 34 0 3 -127z m508 92 c0 -35 0 -35 -45 -35 -41
0 -45 -2 -45 -25 0 -22 4 -25 40 -25 39 0 40 -1 40 -35 0 -34 -1 -35 -40 -35
-38 0 -40 -2 -40 -30 0 -29 2 -30 46 -30 l45 0 -3 -37 -3 -38 -77 -3 -78 -3 0
166 0 165 80 0 80 0 0 -35z m118 -47 l20 -83 1 83 1 83 33 -3 32 -3 0 -160 0
-160 -37 -3 c-28 -2 -37 1 -41 15 -3 10 -13 51 -22 91 -10 39 -18 72 -19 72
-1 0 0 -40 2 -90 l4 -90 -36 0 -36 0 0 165 0 165 39 0 39 0 20 -82z m-205
-296 c10 -11 21 -38 24 -61 l6 -41 -37 0 c-32 0 -36 3 -36 25 0 29 -28 45 -41
24 -5 -8 -9 -48 -9 -89 0 -41 4 -81 9 -89 15 -23 41 -5 41 29 0 28 3 30 35 30
34 0 35 -1 35 -41 0 -85 -93 -129 -157 -75 -27 23 -28 28 -31 133 -3 118 6
148 48 171 32 16 88 8 113 -16z m238 -1 c29 -29 29 -31 29 -141 0 -110 0 -112
-29 -141 -38 -37 -88 -39 -128 -5 -27 23 -28 28 -31 133 -3 118 6 149 48 170
42 21 79 16 111 -16z m-1136 -6 c28 -27 33 -71 11 -101 -13 -17 -12 -21 2 -38
26 -29 22 -99 -7 -130 -22 -23 -32 -26 -93 -26 l-68 0 0 160 0 160 65 0 c57 0
69 -3 90 -25z m155 -100 l0 -125 40 0 c39 0 40 -1 40 -35 l0 -35 -80 0 -80 0
0 160 0 160 40 0 40 0 0 -125z m250 122 c0 -2 13 -73 30 -158 16 -85 30 -155
30 -156 0 -2 -16 -3 -35 -3 -31 0 -36 3 -41 30 -5 23 -12 30 -30 30 -20 0 -24
-5 -24 -30 0 -28 -2 -30 -39 -30 l-39 0 13 68 c7 37 21 109 31 160 l18 92 43
0 c24 0 43 -2 43 -3z m180 -39 c36 -138 37 -140 32 -45 l-5 87 37 0 36 0 0
-160 0 -160 -39 0 -39 0 -20 83 -20 82 -1 -82 -1 -83 -32 0 -33 0 0 160 0 160
37 0 c35 0 38 -2 48 -42z"/>
<path d="M1142 1328 c-14 -14 -16 -166 -3 -187 8 -12 12 -12 25 -2 21 18 23
173 3 190 -10 8 -17 7 -25 -1z"/>
<path d="M1556 965 c-9 -25 -7 -158 3 -174 5 -8 16 -11 25 -8 24 10 19 190 -5
195 -9 2 -19 -4 -23 -13z"/>
<path d="M420 950 c0 -25 4 -31 18 -28 11 2 17 12 17 28 0 16 -6 26 -17 28
-14 3 -18 -3 -18 -28z"/>
<path d="M426 853 c-3 -4 -6 -22 -6 -41 0 -27 3 -33 16 -28 9 3 18 6 20 6 2 0
4 13 4 29 0 27 -20 47 -34 34z"/>
<path d="M861 929 c0 -15 -4 -41 -7 -58 -5 -24 -3 -31 10 -31 17 0 20 31 6 85
-7 29 -8 29 -9 4z"/>
</g>
</svg>
