<svg width="21" height="20" viewBox="0 0 21 20" fill="none" xmlns="http://www.w3.org/2000/svg">
<g clip-path="url(#clip0_130_1236)">
<path d="M10.7773 0C5.25449 0 0.777344 4.47714 0.777344 10C0.777344 15.5229 5.25449 20 10.7773 20C16.3002 20 20.7773 15.5229 20.7773 10C20.7773 4.47714 16.3002 0 10.7773 0ZM15.1295 14.5127C15.0023 14.7303 14.7735 14.8516 14.5384 14.8517C14.4212 14.8517 14.3025 14.8215 14.194 14.7581C12.397 13.7079 10.321 13.5391 8.89558 13.5825C7.31659 13.6305 6.15864 13.9422 6.14713 13.9454C5.78314 14.0448 5.407 13.8306 5.30715 13.4667C5.20735 13.1028 5.42079 12.7269 5.78459 12.6267C5.83678 12.6123 7.08284 12.2739 8.81561 12.2167C9.83625 12.183 10.8188 12.2542 11.7356 12.4281C12.8969 12.6484 13.9561 13.035 14.8841 13.5773C15.2102 13.7679 15.32 14.1867 15.1295 14.5127ZM16.4008 11.8723C16.2502 12.13 15.9791 12.2737 15.7007 12.2738C15.5619 12.2738 15.4213 12.2381 15.2927 12.163C13.1642 10.919 10.705 10.7191 9.01661 10.7704C7.14621 10.8274 5.77458 11.1966 5.76098 11.2003C5.32992 11.3179 4.88428 11.0644 4.76601 10.6333C4.64778 10.2022 4.90065 9.757 5.33156 9.63826C5.39339 9.62123 6.86935 9.2203 8.92186 9.15263C10.1309 9.11278 11.2948 9.19701 12.3807 9.40302C13.7563 9.66398 15.011 10.122 16.1101 10.7643C16.4964 10.99 16.6265 11.4861 16.4008 11.8723ZM17.1823 9.47153C17.012 9.47153 16.8396 9.42776 16.6819 9.33563C11.6214 6.37818 5.05694 8.13638 4.99124 8.15453C4.46216 8.3003 3.91522 7.98958 3.7695 7.46055C3.62372 6.93152 3.93444 6.38454 4.46347 6.23881C4.53928 6.21791 6.34972 5.72615 8.86733 5.64314C10.3505 5.59432 11.778 5.69758 13.11 5.95026C14.7972 6.27033 16.3363 6.8321 17.6845 7.62003C18.1583 7.89689 18.3179 8.50537 18.0411 8.97912C17.8563 9.29527 17.5239 9.47153 17.1823 9.47153Z" fill="#E6E6E6"/>
</g>
<defs>
<clipPath id="clip0_130_1236">
<rect width="20" height="20" fill="white" transform="translate(0.777344)"/>
</clipPath>
</defs>
</svg>
