<svg width="21" height="20" viewBox="0 0 21 20" fill="none" xmlns="http://www.w3.org/2000/svg">
<path d="M19.2723 8.19961C17.5525 8.20372 15.875 7.6674 14.4766 6.66641V13.6477C14.4761 14.9407 14.0809 16.2027 13.3438 17.265C12.6067 18.3274 11.5628 19.1393 10.3518 19.5924C9.14076 20.0455 7.82028 20.118 6.56691 19.8003C5.31354 19.4826 4.18702 18.7899 3.338 17.8147C2.48897 16.8395 1.95791 15.6283 1.81581 14.3431C1.67371 13.058 1.92736 11.76 2.54283 10.6229C3.1583 9.48578 4.10625 8.56366 5.25995 7.97983C6.41364 7.39601 7.71808 7.17832 8.99883 7.35586V10.8672C8.41276 10.6828 7.78342 10.6884 7.20068 10.8831C6.61795 11.0777 6.11163 11.4515 5.75402 11.9511C5.39642 12.4507 5.20581 13.0505 5.20943 13.6649C5.21305 14.2793 5.41071 14.8768 5.77417 15.3721C6.13764 15.8675 6.64833 16.2353 7.23331 16.4231C7.8183 16.6109 8.44766 16.609 9.03153 16.4178C9.61539 16.2265 10.1239 15.8557 10.4844 15.3582C10.845 14.8607 11.0391 14.262 11.0391 13.6477V0H14.4766C14.4742 0.290289 14.4985 0.580182 14.5492 0.866016C14.6687 1.50409 14.917 2.1111 15.2791 2.6499C15.6412 3.1887 16.1094 3.64796 16.6551 3.99961C17.4314 4.51293 18.3416 4.78652 19.2723 4.78633V8.19961Z" fill="#E6E6E6"/>
</svg>
