<svg width="23" height="22" viewBox="0 0 23 22" fill="none" xmlns="http://www.w3.org/2000/svg">
<g clip-path="url(#clip0_130_1232)">
<path fill-rule="evenodd" clip-rule="evenodd" d="M21.5822 4.47114C21.9241 4.81301 22.1706 5.23838 22.2971 5.70498C22.7636 7.42751 22.7773 11.0001 22.7773 11.0001C22.7773 11.0001 22.7773 14.5868 22.3116 16.2956C22.185 16.7622 21.9385 17.1876 21.5967 17.5294C21.2548 17.8713 20.8295 18.1177 20.3628 18.2443C18.6541 18.7104 11.7773 18.7104 11.7773 18.7104C11.7773 18.7104 4.90062 18.7104 3.19219 18.244C2.72558 18.1174 2.30021 17.8709 1.95835 17.5291C1.61649 17.1872 1.37003 16.7618 1.24347 16.2952C0.777344 14.5727 0.777344 11.0001 0.777344 11.0001C0.777344 11.0001 0.777344 7.42751 1.22938 5.71873C1.35594 5.25212 1.60239 4.82676 1.94426 4.48489C2.28612 4.14303 2.71149 3.89657 3.17809 3.77001C4.88688 3.30355 11.7636 3.28979 11.7636 3.28979C11.7636 3.28979 18.64 3.28979 20.3484 3.75626C20.815 3.88282 21.2404 4.12928 21.5822 4.47114ZM15.2791 11.0001L9.57457 14.3042L9.57423 7.69594L15.2791 11.0001Z" fill="#E6E6E6"/>
</g>
<defs>
<clipPath id="clip0_130_1232">
<rect width="22" height="22" fill="white" transform="translate(0.777344)"/>
</clipPath>
</defs>
</svg>
